<svg xmlns="http://www.w3.org/2000/svg" viewBox="0 0 635.87 232.81" fill="currentColor"><path d="M289.7 98.3V47.18h11.45v20h20.59v-20h11.45V98.3h-11.45V78.07h-20.59V98.3H289.7z"/><path id="a" d="M356.66 99.1a15.17 15.17 0 01-11.84-5.55 20.48 20.48 0 010-26.49 15.17 15.17 0 0111.84-5.55 12 12 0 019.8 4.39v-3.6h10.87v36h-10.87v-3.6a12 12 0 01-9.8 4.4zm-3.49-12.39a8.26 8.26 0 0011.88 0 10.17 10.17 0 000-12.81 8.26 8.26 0 00-11.88 0 10.17 10.17 0 000 12.81z"/><path d="M403.25 99.1a18.91 18.91 0 01-13.61-5.33 19.13 19.13 0 010-26.93 18.91 18.91 0 0113.61-5.33 19.14 19.14 0 0110.22 2.89 18.2 18.2 0 017 7.63l-9.51 5q-2.37-5.4-7.7-5.4a7.8 7.8 0 00-5.83 2.45 9.25 9.25 0 000 12.39 7.79 7.79 0 005.83 2.44q5.33 0 7.7-5.4l9.51 5a18.16 18.16 0 01-7 7.64 19.14 19.14 0 01-10.22 2.95zM450.55 98.3l-13.39-16v16h-10.87v-54h10.87v30.89l10.51-12.89h12.89l-13.25 16.28 16.42 19.72h-13.18zM298.94 173.3v-40.17h-13v-11h37.72v11h-13.22v40.17h-11.5zM339.94 173.3h-10.92v-54h10.92v21.68q3.09-4.47 10-4.47 6.54 0 10.25 4.39t3.71 11.6v20.8h-10.91v-18.9q0-8-5.83-8a6.59 6.59 0 00-5.26 2.37q-2 2.39-2 7.06l.04 17.47z"/><path id="c" d="M389.35 174.1a19.22 19.22 0 01-13.64-5.15q-5.52-5.14-5.51-13.65a18.13 18.13 0 015.4-13.42 19.83 19.83 0 0126.28-.76q5.19 4.6 5.18 13a32 32 0 01-.21 3.82h-26.14a6.38 6.38 0 003 4.71 10.56 10.56 0 005.83 1.62 11.23 11.23 0 005.26-1.19 9 9 0 003.46-2.91l8.06 6a17.94 17.94 0 01-7 5.79 22.49 22.49 0 01-9.97 2.14zM381 150.77h15.26a6.39 6.39 0 00-2.73-4 8.33 8.33 0 00-4.68-1.37 9.49 9.49 0 00-5 1.33 6.15 6.15 0 00-2.85 4.04z"/><path d="M444.57 173.3l-21-51.12h12.46l13.61 34.06 13.53-34.06h12.6l-21 51.12h-10.2z"/><use x="132.34" y="75" href="#a"/><path id="b" d="M518.59 173.3v-54h10.87v54h-10.87z"/><use x="19.8" href="#b"/><use x="185.83" href="#c"/><path d="M613.48 188.4h-11.73l7.49-17.13-15-33.92h11.9l8.93 22.25 8.87-22.3h12l-22.46 51.1zM220.94 126.33h-.47a10 10 0 00-10 10v1.07a40 40 0 01-20 34.67l-55 31.73a40 40 0 01-40 0l-55-31.73a40 40 0 01-20-34.67v-1.07a10 10 0 00-10-10H10a10 10 0 00-10 10v12.89a40 40 0 0020 34.67l75.46 43.51a40 40 0 0040 0l75.48-43.51a40.05 40.05 0 0020-34.67v-12.89a10 10 0 00-10-10zM220.94 108.47h-.47a10 10 0 01-10-10V95.4a40 40 0 00-20-34.67l-55-31.73a40 40 0 00-40 0l-55 31.73a40 40 0 00-20 34.67v3.07a10 10 0 01-10 10H10a10 10 0 01-10-10V83.58a40 40 0 0120-34.67L95.46 5.4a40 40 0 0140 0l75.48 43.51a40.05 40.05 0 0120 34.67v14.89a10 10 0 01-10 10z"/><path d="M174.16 97.86a40 40 0 00-40 0l-48.33 27.9-18.31-10.57a40 40 0 00-40 0l-20 11.52a10.23 10.23 0 012.49-.32h.47a10 10 0 0110 10v6.47l7-4a40 40 0 0137.78-1.2q1.62.74 3.24 1.53a150.54 150.54 0 0119.93 11.71l34.09 19.68a40 40 0 0120 34.66v12.6l20.42-11.83V193.4a40 40 0 00-20-34.66l-36.66-21.17 27.86-16.08a40 40 0 0140 0l36.31 21v-6.09a10 10 0 0110-10h.49a10 10 0 014.43 1l-51.21-29.54z"/></svg>