<svg id="Layer_1" data-name="Layer 1" xmlns="http://www.w3.org/2000/svg" xmlns:xlink="http://www.w3.org/1999/xlink" viewBox="0 0 635.87 232.81"><defs><style>.cls-1{fill:#fff;}.cls-2{fill:url(#linear-gradient);}</style><linearGradient id="linear-gradient" x1="248.39" y1="505.89" x2="248.39" y2="505.89" gradientUnits="userSpaceOnUse"><stop offset="0" stop-color="#86cd74"/><stop offset="1" stop-color="#21b459"/></linearGradient></defs><path class="cls-1" d="M471.76,481.9V430.78h11.45v20H503.8v-20h11.45V481.9H503.8V461.67H483.21V481.9Z" transform="translate(-182.06 -383.6)"/><path class="cls-1" d="M538.72,482.7a15.17,15.17,0,0,1-11.84-5.55,20.48,20.48,0,0,1,0-26.49,15.17,15.17,0,0,1,11.84-5.55,12,12,0,0,1,9.8,4.39v-3.6h10.87v36H548.52v-3.6A12,12,0,0,1,538.72,482.7Zm-3.49-12.39a8.26,8.26,0,0,0,11.88,0,10.17,10.17,0,0,0,0-12.81,8.26,8.26,0,0,0-11.88,0,10.17,10.17,0,0,0,0,12.81Z" transform="translate(-182.06 -383.6)"/><path class="cls-1" d="M585.31,482.7a18.91,18.91,0,0,1-13.61-5.33,19.13,19.13,0,0,1,0-26.93,18.91,18.91,0,0,1,13.61-5.33A19.14,19.14,0,0,1,595.53,448a18.2,18.2,0,0,1,7,7.63l-9.51,5q-2.37-5.4-7.7-5.4a7.8,7.8,0,0,0-5.83,2.45,9.25,9.25,0,0,0,0,12.39,7.79,7.79,0,0,0,5.83,2.44q5.33,0,7.7-5.4l9.51,5a18.16,18.16,0,0,1-7,7.64A19.14,19.14,0,0,1,585.31,482.7Z" transform="translate(-182.06 -383.6)"/><path class="cls-1" d="M632.61,481.9l-13.39-16v16H608.35v-54h10.87v30.89l10.51-12.89h12.89l-13.25,16.28,16.42,19.72Z" transform="translate(-182.06 -383.6)"/><path class="cls-1" d="M481,556.9V516.73H468v-11h37.72v11H492.5V556.9Z" transform="translate(-182.06 -383.6)"/><path class="cls-1" d="M522,556.9H511.08v-54H522v21.68q3.09-4.47,10-4.47,6.54,0,10.25,4.39t3.71,11.6v20.8H535.05V538q0-8-5.83-8a6.59,6.59,0,0,0-5.26,2.37q-2,2.39-2,7.06Z" transform="translate(-182.06 -383.6)"/><path class="cls-1" d="M571.41,557.7a19.22,19.22,0,0,1-13.64-5.15q-5.52-5.14-5.51-13.65a18.13,18.13,0,0,1,5.4-13.42,19.83,19.83,0,0,1,26.28-.76q5.19,4.6,5.18,13a32,32,0,0,1-.21,3.82H562.77a6.38,6.38,0,0,0,3,4.71,10.56,10.56,0,0,0,5.83,1.62,11.23,11.23,0,0,0,5.26-1.19,9,9,0,0,0,3.46-2.91l8.06,6a17.94,17.94,0,0,1-7,5.79A22.49,22.49,0,0,1,571.41,557.7Zm-8.35-23.33h15.26a6.39,6.39,0,0,0-2.73-4,8.33,8.33,0,0,0-4.68-1.37,9.49,9.49,0,0,0-5,1.33A6.15,6.15,0,0,0,563.06,534.37Z" transform="translate(-182.06 -383.6)"/><path class="cls-1" d="M626.63,556.9l-21-51.12h12.46l13.61,34.06,13.53-34.06h12.6l-21,51.12Z" transform="translate(-182.06 -383.6)"/><path class="cls-1" d="M671.06,557.7a15.19,15.19,0,0,1-11.85-5.55,20.48,20.48,0,0,1,0-26.49,15.19,15.19,0,0,1,11.85-5.55,12,12,0,0,1,9.79,4.39v-3.6h10.87v36H680.85v-3.6A12,12,0,0,1,671.06,557.7Zm-3.49-12.39a8.26,8.26,0,0,0,11.88,0,10.21,10.21,0,0,0,0-12.81,8.26,8.26,0,0,0-11.88,0,10.17,10.17,0,0,0,0,12.81Z" transform="translate(-182.06 -383.6)"/><path class="cls-1" d="M700.65,556.9v-54h10.87v54Z" transform="translate(-182.06 -383.6)"/><path class="cls-1" d="M720.45,556.9v-54h10.87v54Z" transform="translate(-182.06 -383.6)"/><path class="cls-1" d="M757.24,557.7a19.22,19.22,0,0,1-13.64-5.15q-5.52-5.14-5.51-13.65a18.13,18.13,0,0,1,5.4-13.42,19.83,19.83,0,0,1,26.28-.76q5.19,4.6,5.18,13a32,32,0,0,1-.21,3.82H748.6a6.38,6.38,0,0,0,2.95,4.71,10.56,10.56,0,0,0,5.83,1.62,11.23,11.23,0,0,0,5.26-1.19,9,9,0,0,0,3.46-2.91l8.06,6a17.94,17.94,0,0,1-7,5.79A22.49,22.49,0,0,1,757.24,557.7Zm-8.35-23.33h15.26a6.39,6.39,0,0,0-2.73-4,8.33,8.33,0,0,0-4.68-1.37,9.49,9.49,0,0,0-5,1.33A6.15,6.15,0,0,0,748.89,534.37Z" transform="translate(-182.06 -383.6)"/><path class="cls-1" d="M795.54,572H783.81l7.49-17.13-15-33.92H788.2l8.93,22.25L806,520.9h12Z" transform="translate(-182.06 -383.6)"/><path class="cls-1" d="M403,509.93h-.47a10,10,0,0,0-10,10V521a40,40,0,0,1-20,34.67l-55,31.73a40,40,0,0,1-40,0l-55-31.73a40,40,0,0,1-20-34.67v-1.07a10,10,0,0,0-10-10h-.47a10,10,0,0,0-10,10v12.89a40,40,0,0,0,20,34.67L277.52,611a40,40,0,0,0,40,0L393,567.49a40.05,40.05,0,0,0,20-34.67V519.93A10,10,0,0,0,403,509.93Z" transform="translate(-182.06 -383.6)"/><path class="cls-1" d="M403,492.07h-.47a10,10,0,0,1-10-10V479a40,40,0,0,0-20-34.67l-55-31.73a40,40,0,0,0-40,0l-55,31.73a40,40,0,0,0-20,34.67v3.07a10,10,0,0,1-10,10h-.47a10,10,0,0,1-10-10V467.18a40,40,0,0,1,20-34.67L277.52,389a40,40,0,0,1,40,0L393,432.51a40.05,40.05,0,0,1,20,34.67v14.89A10,10,0,0,1,403,492.07Z" transform="translate(-182.06 -383.6)"/><path class="cls-1" d="M356.22,481.46a40,40,0,0,0-40,0l-48.33,27.9-18.31-10.57a40,40,0,0,0-40,0l-20,11.52a10.23,10.23,0,0,1,2.49-.32h.47a10,10,0,0,1,10,10v6.47l7-4a40,40,0,0,1,37.78-1.2l0,0q1.62.74,3.24,1.53a150.54,150.54,0,0,1,19.93,11.71l34.09,19.68a40,40,0,0,1,20,34.66v12.6L345,589.61V577a40,40,0,0,0-20-34.66l-36.66-21.17,27.86-16.08a40,40,0,0,1,40,0l36.31,21V520a10,10,0,0,1,10-10H403a10,10,0,0,1,4.43,1Z" transform="translate(-182.06 -383.6)"/><path class="cls-2" d="M248.39,505.89" transform="translate(-182.06 -383.6)"/></svg>