<svg xmlns="http://www.w3.org/2000/svg" fill="currentColor" viewBox="0 0 1000 1000"><path d="M728.35 521.5h-1a21.65 21.65 0 00-21.65 21.65v2.32a86.67 86.67 0 01-43.33 75l-119 68.72a86.66 86.66 0 01-86.66 0l-119-68.72a86.67 86.67 0 01-43.33-75v-2.32a21.65 21.65 0 00-21.65-21.65h-1A21.65 21.65 0 00250 543.15v27.9a86.67 86.67 0 0043.33 75.06l163.34 94.3a86.66 86.66 0 0086.66 0l163.34-94.3A86.67 86.67 0 00750 571.05v-27.9a21.65 21.65 0 00-21.65-21.65zM728.35 482.83h-1a21.65 21.65 0 01-21.65-21.65v-6.65a86.67 86.67 0 00-43.33-75l-119-68.72a86.66 86.66 0 00-86.66 0l-119 68.72a86.67 86.67 0 00-43.33 75v6.65a21.65 21.65 0 01-21.65 21.65h-1A21.65 21.65 0 01250 461.18V429a86.67 86.67 0 0143.33-75.06l163.34-94.3a86.66 86.66 0 0186.66 0l163.34 94.3A86.67 86.67 0 01750 429v32.23a21.65 21.65 0 01-21.65 21.6z"/><path d="M627.05 459.86a86.68 86.68 0 00-86.67 0l-104.63 60.41-39.64-22.88a86.63 86.63 0 00-86.67 0l-43.2 24.94a21.45 21.45 0 015.41-.71h1a21.65 21.65 0 0121.65 21.65v14l15.12-8.73a86.66 86.66 0 0181.8-2.6h-.08a293.7 293.7 0 017 3.31 324.8 324.8 0 0143.15 25.35l73.8 42.6a86.68 86.68 0 0143.34 75.06v27.34l44.35-25.6v-27.26a86.65 86.65 0 00-43.34-75l-79.38-45.83L540.38 511a86.68 86.68 0 0186.67 0l78.63 45.4v-13.13a21.65 21.65 0 0121.65-21.65h1a21.39 21.39 0 019.58 2.26l-110.86-64.02z"/></svg>